<svg xmlns="http://www.w3.org/2000/svg" width="500" height="500" fill="green" style="width:100%;height:100%;transform:translate3d(0,0,0);content-visibility:visible" viewBox="0 0 500 500"><defs><clipPath id="a"><path d="M0 0h500v500H0z"/></clipPath><clipPath id="c"><path d="M0 0h500v500H0z"/></clipPath><clipPath id="b"><path d="M0 0h500v500H0z"/></clipPath></defs><g clip-path="url(#a)"><g clip-path="url(#b)" style="display:block"><g class="primary design" style="display:none"><path/><path fill="none"/></g><g class="primary design" style="display:none"><path/><path fill="none"/></g><g class="primary design" style="display:none"><path/><path fill="none"/></g><path class="primary design" style="display:none"/><path fill="#121331" d="M432.978 154.139a20.768 20.768 0 0 0-16.731-8.427l-248.585.139L164.82 132c-5.307-28.18-29.71-48.622-58.039-48.606l-44.389.025c-11.518.006-20.824 9.343-20.818 20.841.007 11.498 9.323 20.825 20.842 20.819l44.388-.025c8.29-.005 15.48 6.157 17.152 14.967l6.308 30.846c0 .041.042.062.042.104v.104l29.154 135.379a20.8 20.8 0 0 0 20.36 16.444l169.681-.095c26.33-.014 46.63-16.544 54.175-43.69l32.498-106.5c1.934-6.313.722-13.166-3.197-18.475zM208.375 354.128c-22.975.013-41.65 18.708-41.636 41.683.013 22.976 18.707 41.65 41.683 41.637 22.975-.013 41.65-18.708 41.637-41.683-.013-22.976-18.708-41.65-41.684-41.637zm135.395-.076c-22.975.013-41.65 18.708-41.636 41.684.013 22.975 18.707 41.65 41.683 41.636 22.975-.012 41.65-18.707 41.637-41.683-.013-22.975-18.708-41.65-41.684-41.637z" class="primary design" style="display:block"/><g class="primary design" style="display:none"><path/><path/><path/></g></g><g clip-path="url(#c)" opacity="0" style="display:block"><g class="primary design" style="display:none"><path fill="none"/><path/><path fill="none"/></g><g class="primary design" style="display:none"><path/><path fill="none"/></g><g class="primary design" style="display:none"><path/><path fill="none"/></g><g class="primary design" style="display:none"><path/><path/><path/></g></g><g class="com" style="display:none"><path/><path/><path/><path/><path/><path/><path/><path/><path/><path/><path/><path/></g></g></svg>